# xmcd
#
# Track frame offsets: 
#        150
#        17725
#        90027
#        144102
#
# Disc length: 2267 seconds
#
# Revision: 5
# Processed by: cddbd v1.5.2PL0 Copyright (c) Steve Scherf et al.
# Submitted via: ExactAudioCopy v1.0b3
#
DISCID=1d08d904
DTITLE=Ketcham, Charles - Utah Symphony Orchestra / Music From Alfred 
DTITLE=Hitchcock Films
DYEAR=1985
DGENRE=Soundtrack
TTITLE0=Family Plot - End Titles
TTITLE1=Strangers On A Train - Suite
TTITLE2=Suspicion - Suite
TTITLE3=Notorious - Suite
EXTD=YEAR: 1985
EXTT0=
EXTT1=
EXTT2=
EXTT3=
PLAYORDER=
